<?xml version="1.0" standalone="no"?>
<!DOCTYPE svg PUBLIC "-//W3C//DTD SVG 1.1//EN" "http://www.w3.org/Graphics/SVG/1.1/DTD/svg11.dtd">
<svg width="100%" height="100%" viewBox="0 0 255 100" version="1.1" xmlns="http://www.w3.org/2000/svg" xmlns:xlink="http://www.w3.org/1999/xlink" xml:space="preserve" style="fill-rule:evenodd;clip-rule:evenodd;stroke-linejoin:round;stroke-miterlimit:1.41421;">
    <g>
        <g transform="matrix(1.44172,0,0,1.44172,148.946,32.1916)">
            <path d="M5.045,0C4.856,0 4.732,-0.089 4.672,-0.266L4.554,-0.851C4.428,-0.709 4.296,-0.581 4.159,-0.467C4.021,-0.352 3.872,-0.254 3.713,-0.171C3.553,-0.089 3.382,-0.025 3.199,0.021C3.016,0.066 2.818,0.089 2.605,0.089C2.274,0.089 1.971,0.02 1.695,-0.118C1.42,-0.256 1.182,-0.456 0.984,-0.718C0.785,-0.98 0.631,-1.303 0.523,-1.689C0.414,-2.075 0.36,-2.516 0.36,-3.013C0.36,-3.462 0.421,-3.879 0.543,-4.265C0.666,-4.651 0.841,-4.986 1.069,-5.269C1.298,-5.553 1.571,-5.774 1.89,-5.934C2.209,-6.093 2.568,-6.173 2.965,-6.173C3.304,-6.173 3.593,-6.119 3.834,-6.01C4.074,-5.902 4.288,-5.757 4.478,-5.576L4.478,-8.778L5.937,-8.778L5.937,0L5.045,0ZM3.101,-1.069C3.404,-1.069 3.662,-1.132 3.875,-1.258C4.088,-1.384 4.288,-1.563 4.478,-1.796L4.478,-4.513C4.312,-4.714 4.132,-4.856 3.937,-4.938C3.742,-5.021 3.532,-5.062 3.308,-5.062C3.087,-5.062 2.888,-5.021 2.708,-4.938C2.529,-4.856 2.378,-4.731 2.254,-4.563C2.129,-4.396 2.034,-4.183 1.967,-3.925C1.9,-3.667 1.867,-3.363 1.867,-3.013C1.867,-2.658 1.895,-2.358 1.952,-2.112C2.009,-1.866 2.091,-1.665 2.197,-1.509C2.304,-1.354 2.434,-1.241 2.587,-1.173C2.741,-1.104 2.912,-1.069 3.101,-1.069Z" style="fill:rgb(121,121,121);fill-rule:nonzero;"/>
            <path d="M10.101,-6.155C10.554,-6.155 10.964,-6.082 11.333,-5.937C11.701,-5.791 12.015,-5.584 12.275,-5.316C12.535,-5.049 12.735,-4.722 12.877,-4.336C13.019,-3.95 13.09,-3.519 13.09,-3.042C13.09,-2.562 13.019,-2.128 12.877,-1.743C12.735,-1.357 12.535,-1.028 12.275,-0.756C12.015,-0.484 11.701,-0.276 11.333,-0.13C10.964,0.016 10.554,0.089 10.101,0.089C9.648,0.089 9.237,0.016 8.866,-0.13C8.496,-0.276 8.18,-0.484 7.918,-0.756C7.656,-1.028 7.454,-1.357 7.31,-1.743C7.166,-2.128 7.094,-2.562 7.094,-3.042C7.094,-3.519 7.166,-3.95 7.31,-4.336C7.454,-4.722 7.656,-5.049 7.918,-5.316C8.18,-5.584 8.496,-5.791 8.866,-5.937C9.237,-6.082 9.648,-6.155 10.101,-6.155ZM10.101,-1.034C10.605,-1.034 10.978,-1.203 11.22,-1.542C11.463,-1.88 11.584,-2.377 11.584,-3.03C11.584,-3.684 11.463,-4.182 11.22,-4.525C10.978,-4.867 10.605,-5.039 10.101,-5.039C9.589,-5.039 9.211,-4.866 8.967,-4.522C8.723,-4.177 8.601,-3.68 8.601,-3.03C8.601,-2.381 8.723,-1.885 8.967,-1.545C9.211,-1.204 9.589,-1.034 10.101,-1.034Z" style="fill:rgb(121,121,121);fill-rule:nonzero;"/>
            <path d="M15.707,-8.778L15.707,-3.751L15.978,-3.751C16.077,-3.751 16.154,-3.765 16.209,-3.792C16.264,-3.82 16.323,-3.871 16.386,-3.946L17.892,-5.807C17.959,-5.885 18.03,-5.947 18.105,-5.993C18.18,-6.038 18.278,-6.061 18.4,-6.061L19.735,-6.061L17.851,-3.81C17.784,-3.727 17.715,-3.652 17.644,-3.583C17.573,-3.514 17.497,-3.454 17.414,-3.402C17.497,-3.343 17.569,-3.274 17.632,-3.196C17.695,-3.117 17.758,-3.032 17.821,-2.942L19.842,0L18.524,0C18.41,0 18.314,-0.02 18.235,-0.059C18.156,-0.098 18.085,-0.165 18.022,-0.26L16.481,-2.558C16.421,-2.648 16.362,-2.707 16.303,-2.735C16.244,-2.763 16.156,-2.776 16.038,-2.776L15.707,-2.776L15.707,0L14.248,0L14.248,-8.778L15.707,-8.778Z" style="fill:rgb(121,121,121);fill-rule:nonzero;"/>
            <path d="M22.222,-8.778L22.222,-3.751L22.494,-3.751C22.592,-3.751 22.669,-3.765 22.724,-3.792C22.779,-3.82 22.838,-3.871 22.901,-3.946L24.408,-5.807C24.475,-5.885 24.546,-5.947 24.62,-5.993C24.695,-6.038 24.794,-6.061 24.916,-6.061L26.251,-6.061L24.366,-3.81C24.299,-3.727 24.231,-3.652 24.16,-3.583C24.089,-3.514 24.012,-3.454 23.929,-3.402C24.012,-3.343 24.085,-3.274 24.148,-3.196C24.211,-3.117 24.274,-3.032 24.337,-2.942L26.357,0L25.04,0C24.926,0 24.829,-0.02 24.75,-0.059C24.672,-0.098 24.601,-0.165 24.538,-0.26L22.996,-2.558C22.937,-2.648 22.878,-2.707 22.819,-2.735C22.76,-2.763 22.671,-2.776 22.553,-2.776L22.222,-2.776L22.222,0L20.763,0L20.763,-8.778L22.222,-8.778Z" style="fill:rgb(121,121,121);fill-rule:nonzero;"/>
            <path d="M28.596,-6.061L28.596,-2.209C28.596,-1.839 28.681,-1.553 28.853,-1.35C29.024,-1.147 29.281,-1.046 29.624,-1.046C29.876,-1.046 30.112,-1.102 30.332,-1.214C30.553,-1.326 30.762,-1.481 30.959,-1.678L30.959,-6.061L32.418,-6.061L32.418,0L31.526,0C31.337,0 31.213,-0.089 31.154,-0.266L31.053,-0.75C30.927,-0.624 30.797,-0.509 30.663,-0.405C30.529,-0.3 30.387,-0.212 30.235,-0.139C30.083,-0.066 29.92,-0.009 29.745,0.032C29.569,0.074 29.381,0.095 29.181,0.095C28.85,0.095 28.557,0.038 28.303,-0.074C28.049,-0.186 27.836,-0.345 27.662,-0.549C27.489,-0.754 27.358,-0.997 27.27,-1.279C27.181,-1.56 27.137,-1.871 27.137,-2.209L27.137,-6.061L28.596,-6.061Z" style="fill:rgb(121,121,121);fill-rule:nonzero;"/>
        </g>
        <g transform="matrix(0.937917,0,0,0.937917,7.18115,3.87471)">
            <path d="M47.149,74.776C48.276,78.786 50.226,83.692 50.612,86.228C51.883,94.575 40.063,98.562 35.423,91.826C33.207,88.605 33.108,85.627 31.427,80.368C25.505,82.004 22.303,84.404 17.838,83.831C11.107,82.968 9.359,73.671 14.109,69.443C17.095,66.785 21.957,66.843 26.1,64.915C26.1,64.915 22.2,52.647 19.97,46.795C15.521,48.119 9.005,50.902 6.115,50.258C2.598,48.891 0.193,46.057 0.252,42.266C0.377,34.53 9.166,33.965 14.909,31.608C13.489,27.108 11.137,23.994 11.443,19.085C11.84,12.774 19.326,9.119 24.768,12.956C27.339,14.768 29.006,21.374 30.628,26.278L48.482,20.417C46.439,13.882 42.528,7.452 47.414,2.563C51.074,-1.095 57.532,-0.17 60.206,3.628C62.664,7.123 62.918,11.38 64.201,15.086C69.031,13.435 75.124,10.36 79.671,11.903C83.406,13.171 85.204,18.105 84.187,21.216C82.311,27.159 75.556,27.95 69.53,30.007L75.393,48.127C80.401,46.486 82.94,44.371 87.65,44.398C92.456,44.425 95.468,47.888 95.911,51.324C97.054,60.24 86.987,61.045 80.722,63.314C82.648,69.543 84.286,70.882 84.188,75.837C84.017,84.314 73.311,86.276 68.732,79.835C67.073,77.502 66.655,73.759 65,68.91C65,68.91 47.429,75.024 47.149,74.776ZM59.672,53.457L53.276,35.337L35.958,41.464L41.819,59.317L59.672,53.457Z" style="fill:rgb(10,136,132);fill-rule:nonzero;"/>
        </g>
    </g>
    <g transform="matrix(4.89421,0,0,4.89421,-426.72,-291.361)">
        <g id="Layer1">
            <path d="M113.251,68.465C113.213,68.525 113.174,68.567 113.132,68.592C113.091,68.616 113.038,68.629 112.974,68.629C112.906,68.629 112.834,68.61 112.756,68.572C112.679,68.534 112.59,68.492 112.488,68.445C112.386,68.398 112.27,68.355 112.14,68.318C112.01,68.28 111.857,68.261 111.68,68.261C111.405,68.261 111.188,68.32 111.03,68.436C110.871,68.553 110.792,68.706 110.792,68.894C110.792,69.019 110.833,69.123 110.914,69.208C110.995,69.293 111.102,69.367 111.236,69.431C111.37,69.495 111.521,69.553 111.691,69.604C111.861,69.654 112.034,69.71 112.211,69.77C112.388,69.831 112.561,69.899 112.731,69.977C112.9,70.054 113.052,70.152 113.186,70.27C113.32,70.389 113.427,70.531 113.508,70.697C113.589,70.863 113.63,71.063 113.63,71.296C113.63,71.575 113.579,71.832 113.477,72.068C113.375,72.303 113.226,72.507 113.03,72.678C112.835,72.85 112.592,72.983 112.304,73.079C112.016,73.176 111.685,73.224 111.312,73.224C111.113,73.224 110.918,73.206 110.727,73.17C110.537,73.134 110.354,73.084 110.179,73.02C110.004,72.956 109.842,72.881 109.693,72.794C109.544,72.707 109.413,72.613 109.3,72.511L109.622,71.98C109.664,71.916 109.713,71.867 109.769,71.833C109.826,71.799 109.897,71.782 109.984,71.782C110.071,71.782 110.153,71.807 110.23,71.856C110.307,71.905 110.397,71.958 110.498,72.014C110.6,72.071 110.72,72.123 110.857,72.172C110.995,72.221 111.169,72.246 111.38,72.246C111.546,72.246 111.688,72.226 111.807,72.186C111.926,72.147 112.023,72.095 112.101,72.031C112.178,71.967 112.234,71.893 112.27,71.808C112.306,71.723 112.324,71.635 112.324,71.545C112.324,71.409 112.283,71.298 112.202,71.212C112.121,71.125 112.014,71.05 111.88,70.985C111.747,70.921 111.594,70.864 111.422,70.813C111.251,70.762 111.076,70.707 110.897,70.646C110.718,70.586 110.543,70.515 110.371,70.434C110.2,70.353 110.047,70.251 109.913,70.126C109.78,70.002 109.672,69.849 109.591,69.669C109.51,69.488 109.47,69.269 109.47,69.013C109.47,68.776 109.517,68.549 109.611,68.335C109.705,68.12 109.844,67.932 110.026,67.772C110.209,67.612 110.437,67.484 110.71,67.388C110.984,67.292 111.299,67.244 111.657,67.244C112.056,67.244 112.42,67.31 112.748,67.442C113.076,67.574 113.349,67.747 113.567,67.962L113.251,68.465Z" style="fill:rgb(10,136,132);fill-rule:nonzero;"/>
            <rect x="114.839" y="64.734" width="1.396" height="8.399" style="fill:rgb(10,136,132);fill-rule:nonzero;"/>
            <path d="M122.356,73.133L121.729,73.133C121.597,73.133 121.493,73.113 121.418,73.074C121.343,73.034 121.286,72.954 121.248,72.834L121.124,72.421C120.977,72.553 120.833,72.669 120.692,72.769C120.55,72.868 120.404,72.952 120.254,73.02C120.103,73.088 119.943,73.139 119.773,73.173C119.604,73.207 119.415,73.224 119.208,73.224C118.963,73.224 118.737,73.191 118.53,73.125C118.323,73.059 118.144,72.96 117.996,72.828C117.847,72.696 117.731,72.532 117.648,72.336C117.565,72.14 117.524,71.912 117.524,71.652C117.524,71.434 117.581,71.218 117.696,71.005C117.811,70.792 118.002,70.6 118.27,70.429C118.537,70.257 118.893,70.115 119.338,70.002C119.783,69.889 120.335,69.825 120.994,69.81L120.994,69.471C120.994,69.083 120.912,68.795 120.748,68.609C120.584,68.422 120.346,68.329 120.033,68.329C119.807,68.329 119.619,68.355 119.468,68.408C119.317,68.461 119.186,68.52 119.075,68.586C118.964,68.652 118.861,68.712 118.767,68.764C118.673,68.817 118.569,68.843 118.456,68.843C118.362,68.843 118.281,68.819 118.213,68.77C118.145,68.721 118.091,68.661 118.049,68.589L117.795,68.143C118.462,67.532 119.266,67.227 120.208,67.227C120.547,67.227 120.85,67.283 121.116,67.394C121.381,67.505 121.606,67.659 121.791,67.857C121.976,68.055 122.116,68.291 122.212,68.566C122.308,68.842 122.356,69.143 122.356,69.471L122.356,73.133ZM119.643,72.263C119.786,72.263 119.918,72.25 120.039,72.223C120.159,72.197 120.273,72.157 120.381,72.105C120.488,72.052 120.592,71.987 120.692,71.91C120.791,71.832 120.892,71.741 120.994,71.635L120.994,70.658C120.587,70.676 120.247,70.711 119.974,70.762C119.701,70.813 119.481,70.878 119.315,70.957C119.15,71.036 119.032,71.129 118.962,71.234C118.892,71.34 118.858,71.455 118.858,71.579C118.858,71.824 118.93,71.999 119.075,72.105C119.22,72.21 119.41,72.263 119.643,72.263Z" style="fill:rgb(10,136,132);fill-rule:nonzero;"/>
            <path d="M127.805,68.561C127.763,68.614 127.723,68.655 127.683,68.685C127.643,68.715 127.586,68.73 127.511,68.73C127.439,68.73 127.369,68.709 127.302,68.665C127.234,68.622 127.153,68.573 127.058,68.518C126.964,68.464 126.852,68.415 126.722,68.371C126.592,68.328 126.431,68.306 126.239,68.306C125.994,68.306 125.779,68.351 125.595,68.439C125.41,68.528 125.256,68.655 125.134,68.821C125.012,68.987 124.92,69.187 124.86,69.423C124.8,69.658 124.769,69.925 124.769,70.222C124.769,70.531 124.802,70.806 124.868,71.048C124.934,71.289 125.029,71.491 125.154,71.655C125.278,71.819 125.429,71.943 125.606,72.028C125.783,72.113 125.983,72.155 126.205,72.155C126.427,72.155 126.607,72.128 126.745,72.073C126.882,72.019 126.998,71.959 127.092,71.893C127.187,71.827 127.269,71.766 127.338,71.712C127.408,71.657 127.486,71.63 127.573,71.63C127.686,71.63 127.771,71.673 127.827,71.76L128.228,72.268C128.074,72.449 127.906,72.601 127.725,72.723C127.545,72.846 127.357,72.944 127.163,73.017C126.969,73.091 126.768,73.143 126.561,73.173C126.354,73.203 126.149,73.218 125.945,73.218C125.587,73.218 125.25,73.151 124.933,73.017C124.617,72.884 124.341,72.689 124.105,72.432C123.87,72.176 123.683,71.862 123.546,71.491C123.408,71.12 123.34,70.697 123.34,70.222C123.34,69.797 123.401,69.402 123.523,69.038C123.646,68.675 123.826,68.36 124.063,68.095C124.3,67.829 124.594,67.621 124.945,67.47C125.295,67.319 125.698,67.244 126.154,67.244C126.588,67.244 126.967,67.314 127.293,67.453C127.619,67.592 127.912,67.792 128.172,68.052L127.805,68.561Z" style="fill:rgb(10,136,132);fill-rule:nonzero;"/>
            <path d="M130.534,64.734L130.534,69.544L130.794,69.544C130.889,69.544 130.962,69.531 131.015,69.505C131.068,69.478 131.124,69.429 131.184,69.358L132.626,67.577C132.69,67.502 132.758,67.443 132.829,67.399C132.901,67.356 132.995,67.334 133.112,67.334L134.389,67.334L132.586,69.488C132.522,69.567 132.456,69.639 132.388,69.705C132.32,69.771 132.247,69.829 132.168,69.878C132.247,69.934 132.317,70 132.377,70.076C132.437,70.151 132.498,70.232 132.558,70.319L134.491,73.133L133.23,73.133C133.121,73.133 133.029,73.114 132.953,73.077C132.878,73.039 132.81,72.975 132.75,72.885L131.275,70.686C131.218,70.599 131.162,70.543 131.105,70.516C131.049,70.49 130.964,70.477 130.851,70.477L130.534,70.477L130.534,73.133L129.138,73.133L129.138,64.734L130.534,64.734Z" style="fill:rgb(10,136,132);fill-rule:nonzero;"/>
        </g>
    </g>
</svg>
